<svg width="19" height="18" viewBox="0 0 19 18" fill="none" xmlns="http://www.w3.org/2000/svg">
<path d="M3.70605 6.35254C3.9982 6.35264 4.23511 6.58972 4.23535 6.88184V17.4707C4.23526 17.7629 3.9983 17.9999 3.70605 18H1.05859C0.766364 17.9999 0.529392 17.7629 0.529297 17.4707V6.88184C0.529543 6.58973 0.766457 6.35265 1.05859 6.35254H3.70605ZM10.5879 7.32715C11.7162 6.29446 13.2752 5.87239 14.7705 6.19434C17.0019 6.72123 18.5658 8.73 18.5293 11.0225V17.4707C18.5292 17.763 18.2923 18 18 18H15.3525C15.0604 17.9997 14.8233 17.7629 14.8232 17.4707V11.4141C14.8324 10.7841 14.561 10.1828 14.082 9.77344C13.6031 9.3641 12.9665 9.1897 12.3457 9.29688C11.3032 9.50736 10.5617 10.4358 10.5879 11.499V17.4707C10.5878 17.763 10.3509 18 10.0586 18H7.41211C7.11978 18 6.88291 17.763 6.88281 17.4707V6.88184C6.88306 6.58966 7.11988 6.35254 7.41211 6.35254H10.0586C10.3508 6.35254 10.5876 6.58966 10.5879 6.88184V7.32715ZM2.11719 0C2.67882 0 3.2181 0.222981 3.61523 0.620117C4.01224 1.01714 4.23523 1.55573 4.23535 2.11719C4.23535 3.28673 3.28673 4.23535 2.11719 4.23535C0.947854 4.2351 0 3.28658 0 2.11719C0.000248353 0.948008 0.948008 0.000248353 2.11719 0Z" fill="#707070"/>
</svg>
