<svg width="18" height="18" viewBox="0 0 18 18" fill="none" xmlns="http://www.w3.org/2000/svg">
<path d="M13 0C15.7614 0 18 2.23858 18 5V13C18 15.7614 15.7614 18 13 18H5C2.23858 18 0 15.7614 0 13V5C0 2.23858 2.23858 0 5 0H13ZM5 1.75C3.20735 1.75549 1.75549 3.20735 1.75 5V13C1.75549 14.7926 3.20735 16.2445 5 16.25H13C14.7926 16.2445 16.2445 14.7926 16.25 13V5C16.2445 3.20735 14.7926 1.75549 13 1.75H5ZM9 4.5C10.1943 4.49734 11.3401 4.97094 12.1846 5.81543C13.0291 6.65992 13.5027 7.80572 13.5 9C13.5 11.4853 11.4853 13.5 9 13.5C6.51472 13.5 4.5 11.4853 4.5 9C4.50001 6.51472 6.51472 4.5 9 4.5ZM9 6.25C7.48122 6.25 6.25 7.48122 6.25 9C6.25 10.5188 7.48122 11.75 9 11.75C10.5188 11.75 11.75 10.5188 11.75 9C11.75 7.48122 10.5188 6.25 9 6.25ZM13.75 3.25C14.3023 3.25 14.75 3.69772 14.75 4.25C14.75 4.80228 14.3023 5.25 13.75 5.25C13.1977 5.25 12.75 4.80228 12.75 4.25C12.75 3.69772 13.1977 3.25 13.75 3.25Z" fill="#707070"/>
</svg>
